<svg width="116" height="116" viewBox="0 0 116 116" fill="none" xmlns="http://www.w3.org/2000/svg">
<g clip-path="url(#clip0_137:46)">
<path d="M115.622 105.85L106.922 61.1136C106.666 59.7375 105.456 58.7345 104.06 58.7345H99.3379L98.9192 56.1688C98.7098 54.9092 97.7327 53.9296 96.4765 53.743C96.2439 53.6963 96.0345 53.673 95.8018 53.6497C95.6623 53.6264 95.4994 53.603 95.3598 53.603L94.2432 53.4398L94.4758 52.3435C95.0807 49.5445 94.5921 46.6756 93.1033 44.2265L92.8241 43.7833L93.0102 43.2935C93.7546 41.3575 93.6151 39.1883 92.638 37.369C91.6609 35.5497 89.9162 34.2435 87.8922 33.8003L87.2176 33.6604L87.1012 32.9606C85.7054 25.4967 79.1916 20.0387 71.631 19.9921C71.5612 19.9921 71.4681 19.9921 71.3983 20.0154C71.3053 20.0154 71.2122 20.0387 71.1192 20.0387L70.5143 20.062L70.1886 19.5489C69.0487 17.7762 67.2109 16.61 65.1171 16.3301C63.0234 16.0735 60.953 16.7499 59.4176 18.1961L58.8127 18.7559L58.1148 18.3127C56.0676 16.9832 53.6947 16.2834 51.2753 16.2834C47.3438 16.3068 43.6914 18.1028 41.272 21.2283L40.83 21.7881L40.1553 21.5782C37.5498 20.8318 34.8047 21.2749 32.5946 22.8377C30.3846 24.4004 29.0121 26.8495 28.8492 29.5552L28.8027 30.2083L28.1978 30.4649C25.5458 31.5845 23.8475 34.1735 23.8243 37.0425C23.8243 37.5323 23.8941 38.0221 23.9871 38.5119L24.0802 38.9551L23.8243 39.3283C21.3118 43.1302 20.6604 47.8185 22.033 52.1569L22.4052 53.3465L21.1722 53.5097C20.9629 53.5331 20.7302 53.5564 20.5208 53.603C20.2184 53.6497 19.8927 53.6963 19.5903 53.7197C18.3341 53.9063 17.3337 54.8859 17.1244 56.1454L16.7056 58.7112H12.0296C10.6338 58.7112 9.42411 59.7141 9.16821 61.0903L0.467621 105.85C0.188458 107.297 0.560676 108.789 1.49122 109.932C2.42176 111.075 3.81758 111.728 5.28319 111.728H47.274L47.5764 112.241C48.8326 114.317 53.0434 115.717 58.0218 115.717C62.9769 115.717 67.1411 114.317 68.4206 112.241L68.723 111.752H110.76C112.226 111.752 113.598 111.099 114.552 109.956C115.529 108.789 115.902 107.297 115.622 105.85ZM24.3128 42.4538L24.9177 41.0077L26.011 42.1273C26.3833 42.5238 26.8253 42.8503 27.2905 43.1536C27.7326 43.4101 28.2909 43.2702 28.57 42.827C28.8259 42.4072 28.7096 41.894 28.3374 41.5908L28.2676 41.5441C26.267 40.3313 25.2899 37.9055 25.918 35.643C26.5461 33.3805 28.6166 31.7944 30.9429 31.7944H30.9662C32.5946 31.7944 34.1533 32.5874 35.1304 33.9169C35.3165 34.1735 35.6654 34.3135 35.9911 34.2901C36.3168 34.2435 36.6193 34.0336 36.7356 33.7304C36.8751 33.4271 36.8286 33.0773 36.6193 32.7974C35.4561 31.2346 33.6648 30.2316 31.7339 30.0217L30.5707 29.9051L30.8034 28.7622C31.5013 25.52 34.4092 23.1409 37.7126 23.1409H37.7359H37.7592C38.0383 23.1642 38.3175 23.1876 38.5967 23.2342L39.8762 23.4441L39.4109 24.657C39.2713 25.0302 39.1317 25.4034 39.0387 25.7766C38.9223 26.2664 39.2248 26.7563 39.7133 26.8962C40.2018 27.0128 40.7136 26.7329 40.8532 26.2431C41.1091 25.2868 41.4813 24.3771 41.9931 23.4908C43.924 20.2253 47.4833 18.1961 51.2521 18.1727C53.3458 18.1727 55.3464 18.8025 57.0912 19.9454L57.7891 20.3886L57.51 21.1583C57.2541 21.8814 57.1145 22.6511 57.1145 23.4208C57.1145 23.934 57.5332 24.3538 58.045 24.3538C58.5568 24.3538 58.9756 23.934 58.9756 23.4208C58.9756 20.5285 61.3252 18.1727 64.1866 18.1727C67.0713 18.1727 69.4209 20.5285 69.4209 23.4208C69.4209 23.934 69.8397 24.3538 70.3515 24.3538C70.8633 24.3538 71.282 23.934 71.282 23.4208C71.282 23.3975 71.282 23.3508 71.2588 23.3275C71.2355 23.2342 71.2355 23.1409 71.2355 23.0243L71.1657 21.8581L72.3289 21.928C78.4239 22.3012 83.6582 26.7329 85.0308 32.7041L85.2634 33.6837L84.3096 33.9636C83.4954 34.1968 82.751 34.57 82.0763 35.0832C81.8204 35.2931 81.6576 35.6197 81.7041 35.9462C81.7506 36.2728 81.96 36.576 82.2624 36.6926C82.5648 36.8325 82.9371 36.7859 83.193 36.576C85.1704 35.1065 87.9387 35.2231 89.7766 36.8559C91.6144 38.4886 92.0797 41.2176 90.87 43.3635C90.3349 44.3198 89.5207 45.0662 88.5203 45.5327C88.1481 45.7193 87.9387 46.1624 88.0318 46.5823C88.1248 47.0021 88.4971 47.3054 88.9391 47.3287C89.0554 47.3287 89.195 47.3054 89.3346 47.2354C89.7766 47.0255 90.2186 46.7456 90.6141 46.419L91.754 45.5094L92.2425 46.8855C93.4057 50.1743 92.6845 53.8363 90.3582 56.4253L90.2884 56.4953C87.4269 59.6208 82.751 60.4605 78.9357 58.5712L78.9125 58.5479C78.5403 58.338 78.168 58.128 77.8191 57.8715L76.9816 57.265L77.5864 56.4253C78.8194 54.676 79.0055 52.4135 78.0285 50.5009C77.8889 50.1976 77.5864 50.011 77.2375 49.9877C76.9118 49.9644 76.5861 50.1277 76.4 50.4076C76.2139 50.6875 76.1906 51.0606 76.3535 51.3405C77.2375 53.1132 76.6792 55.3057 75.0507 56.4253C74.0736 57.0784 72.9105 57.265 71.7938 56.9851C70.6772 56.7052 69.7466 55.9588 69.2115 54.9326C69.0487 54.606 68.7463 54.4194 68.4206 54.3961C68.0949 54.3728 67.7692 54.536 67.5831 54.8159C67.397 55.0958 67.3737 55.4457 67.5366 55.7489C68.5369 57.7548 70.5376 59.0144 72.7709 59.0144H72.7941C73.5153 59.0144 74.2132 58.8744 74.8879 58.5945L75.4927 58.3613L75.9813 58.7811C76.6326 59.3409 77.3305 59.8308 78.0982 60.2273C80.7038 61.5801 83.6815 61.86 86.4731 60.997L89.4741 60.0873L87.6131 62.6297C85.4728 65.5453 82.3322 67.4813 78.7729 68.0644C78.3076 68.1344 77.9587 68.5775 77.9819 69.0674C78.0285 69.5572 78.4239 69.9304 78.9125 69.9304C78.959 69.9304 79.0055 69.9304 79.0753 69.9304C80.192 69.7438 81.2854 69.4172 82.3555 68.9741L83.2162 68.6009L83.6815 69.4172C84.3329 70.5601 84.8447 71.773 85.2402 73.0326C85.3332 73.3358 85.3797 73.6623 85.403 73.9889C85.403 75.2717 84.6353 76.438 83.4721 76.9278L83.4489 76.9511C83.0534 77.0911 82.6579 77.1844 82.2624 77.1844C81.2854 77.1844 80.3548 76.7412 79.7034 75.9715C78.2843 74.3154 76.4465 73.0792 74.3761 72.4261C70.2119 71.0266 68.0484 69.6271 67.1178 67.7612L66.4432 66.4317L67.9088 66.2451C68.8859 66.1284 69.8397 65.9185 70.7935 65.6386C71.0959 65.5453 71.3518 65.2887 71.4216 64.9622C71.4914 64.6357 71.3983 64.2858 71.1424 64.0525C70.8865 63.8193 70.5376 63.7493 70.2351 63.8426C69.0487 64.2158 67.8157 64.4257 66.5595 64.519C64.1866 64.7056 61.7439 64.3324 59.5339 63.4461C59.1617 63.3061 58.7429 63.3994 58.487 63.7027C55.2069 67.4813 49.7167 68.111 45.6688 65.1721C41.6442 62.2332 40.5275 56.7985 43.0865 52.5068C43.2726 52.2269 43.2726 51.8537 43.1098 51.5505C42.9469 51.2472 42.6445 51.0606 42.2956 51.0606C41.9699 51.0606 41.6442 51.2239 41.4813 51.5271C41.0626 52.2502 40.7136 53.0432 40.4345 53.8596L40.2018 54.6293L39.3876 54.5827C37.2939 54.4661 35.6189 52.74 35.5724 50.6175V50.5475C35.5724 50.3143 35.4793 50.0577 35.2932 49.8944C35.1304 49.7311 34.8745 49.6378 34.6418 49.6378C34.1068 49.6378 33.688 50.081 33.688 50.5941C33.688 53.603 35.9446 56.0988 38.9223 56.4253L39.8529 56.5186V57.4516C39.8529 58.0581 39.9227 58.6645 40.0157 59.271L40.1786 60.2506L39.2015 60.4605C34.3627 61.5101 29.4075 59.7841 26.2437 55.9588C23.1031 52.2269 22.3587 47.0021 24.3128 42.4538ZM47.2507 109.816H5.28319C4.37591 109.816 3.51515 109.419 2.93356 108.696C2.35197 107.996 2.11934 107.087 2.30545 106.2L11.1689 60.6005H16.4264L10.0057 99.3662C9.84285 100.369 10.2151 101.372 10.9828 102.049C11.7505 102.725 12.7973 102.935 13.7744 102.632C24.4757 99.1563 35.9911 98.4332 47.0646 100.509L47.9951 100.696L47.2507 109.816ZM66.8619 111.262C66.071 112.498 62.5582 113.804 58.045 113.804C53.5319 113.804 50.0191 112.521 49.2281 111.262L49.042 110.959L49.8562 101.116L51.0427 101.419C53.276 101.979 55.4628 102.725 57.5798 103.611L57.6263 103.635C57.7426 103.705 57.9054 103.728 58.045 103.728C58.1846 103.728 58.3242 103.705 58.4405 103.635L58.487 103.611C60.604 102.702 62.8141 101.955 65.0241 101.395L66.2105 101.092L67.0248 110.959L66.8619 111.262ZM60.3481 100.836L58.9756 101.302V74.9918C58.9756 74.502 58.6266 74.0588 58.1381 74.0122C57.5798 73.9655 57.0912 74.3854 57.0912 74.9452V101.325L55.7187 100.859C42.0164 96.264 26.9183 96.264 13.2161 100.836C13.0998 100.882 12.9834 100.882 12.8904 100.882C12.2623 100.882 11.7505 100.323 11.8668 99.6694L19.1483 55.6789L19.8927 55.5623C20.6372 55.4457 21.4281 55.3524 22.1726 55.2591L23.3823 55.0958L23.7312 55.6789C27.1742 61.1836 33.7113 63.8426 39.9925 62.3032L40.7834 62.1166L41.1557 62.8396C42.8074 65.9652 45.8549 68.181 49.3212 68.7875C52.7874 69.3706 56.4166 68.2976 58.9988 65.8719L59.4408 65.452L60.0224 65.6153C61.3019 65.9885 62.6047 66.2217 63.9307 66.315L64.6751 66.3617L64.8613 67.0848C65.722 70.3269 68.188 72.3095 73.7247 74.1755C75.4695 74.7119 77.0281 75.7616 78.2146 77.161C79.2149 78.3506 80.6805 79.0503 82.2159 79.0503C82.8905 79.0503 83.5419 78.9104 84.1468 78.6538C86.0079 77.8608 87.2176 76.0181 87.2176 73.9889C87.2176 73.4524 87.1245 72.9393 86.9617 72.4261C86.5429 71.0733 85.9613 69.7904 85.2867 68.5542L84.8214 67.7378L85.5891 67.1781C88.753 64.8922 90.963 61.5335 91.7772 57.7082L91.8238 57.4516L91.9866 57.2417C92.3821 56.7752 92.731 56.2854 93.0335 55.7722L93.3824 55.1891L94.4991 55.3291C95.0109 55.399 95.5692 55.469 96.1043 55.5623L96.8487 55.6789L104.13 99.6461C104.247 100.416 103.502 101.069 102.758 100.812C95.8949 98.5265 88.7064 97.3603 81.518 97.3603C74.3993 97.4069 67.2109 98.5498 60.3481 100.836ZM113.133 108.719C112.552 109.419 111.691 109.839 110.784 109.839H68.8393L68.0949 100.696L69.0254 100.509C80.0989 98.4099 91.6376 99.1563 102.339 102.655C103.293 102.958 104.34 102.725 105.131 102.049C105.898 101.372 106.27 100.369 106.108 99.3662L99.6869 60.6238H104.968L113.831 106.224C113.947 107.11 113.715 108.02 113.133 108.719Z" fill="#0C0B0B"/>
<path d="M67.048 110.959L66.8619 111.262C66.0709 112.498 62.5581 113.804 58.045 113.804C53.5319 113.804 50.0191 112.521 49.2281 111.262L49.042 110.959L49.8562 101.115L51.0427 101.419C53.276 101.979 55.4627 102.725 57.5797 103.611L57.6263 103.635C57.7426 103.705 57.9054 103.728 58.045 103.728C58.1846 103.728 58.3242 103.705 58.4405 103.635L58.487 103.611C60.604 102.702 62.814 101.955 65.0241 101.395L66.2105 101.092L67.048 110.959Z" fill="#0C0B0B"/>
<path d="M70.8628 41.2875C70.0021 45.7659 66.3962 49.2646 61.9296 50.011L61.3247 50.1043L61.1154 50.6641C59.8359 54.0928 56.5324 56.3786 52.88 56.3786H52.8568C52.345 56.3786 51.9262 55.9588 51.9262 55.4456C51.9262 54.9325 52.345 54.5127 52.8568 54.5127C55.1134 54.5127 57.2303 53.4164 58.5331 51.5737L59.4636 50.2676L57.905 49.941C55.6484 49.4512 53.6477 48.3083 52.0891 46.5822C51.9262 46.3956 51.8564 46.1857 51.8564 45.9525C51.8564 45.6959 51.9728 45.4393 52.1589 45.2527C52.5544 44.9029 53.1359 44.9262 53.4849 45.3227C56.579 48.6348 61.5341 49.1946 65.3028 46.6755C67.257 45.3227 68.583 43.2934 69.025 40.9376C69.0715 40.6111 69.3042 40.3312 69.6298 40.2146C69.9555 40.098 70.3045 40.1679 70.5604 40.4012C70.8396 40.5878 70.9559 40.9376 70.8628 41.2875Z" fill="#0C0B0B"/>
<path d="M52.6251 33.1472C52.6251 33.6604 52.2063 34.0802 51.6945 34.0802C50.0428 34.0802 48.4842 34.7333 47.2977 35.8996C46.1113 37.0658 45.4832 38.6519 45.4832 40.3079C45.4832 40.8211 45.0644 41.2409 44.5526 41.2409C44.2967 41.2409 44.0641 41.1476 43.9012 40.961C43.7151 40.7744 43.6221 40.5412 43.6221 40.3079C43.6221 35.8296 47.2512 32.2142 51.7178 32.1909C52.2063 32.1909 52.6251 32.6108 52.6251 33.1472Z" fill="#0C0B0B"/>
<path d="M58.9753 1.28559V3.26819C58.9753 3.78134 58.5566 4.20118 58.0448 4.20118C57.533 4.20118 57.1143 3.78134 57.1143 3.26819V1.28559C57.1143 0.772446 57.533 0.3526 58.0448 0.3526C58.5566 0.3526 58.9753 0.772446 58.9753 1.28559Z" fill="#0C0B0B"/>
<path d="M92.6843 15.6537L90.6836 17.6596C90.451 17.8928 90.102 18.0095 89.7763 17.9162C89.4506 17.8229 89.1947 17.5663 89.1017 17.2397C89.0086 16.9132 89.1017 16.5633 89.3576 16.3068L91.335 14.3241H91.3583C91.5444 14.1375 91.777 14.0443 92.0329 14.0443C92.1027 14.0443 92.1957 14.0443 92.2655 14.0676C92.5912 14.1609 92.8471 14.4174 92.9402 14.744C93.0332 15.0472 92.9402 15.3971 92.6843 15.6537Z" fill="#0C0B0B"/>
<path d="M26.9182 17.3331C26.7786 17.6829 26.4297 17.9162 26.0575 17.9162C25.8016 17.9162 25.5689 17.8229 25.4061 17.6363L23.4054 15.6303C23.1495 15.3971 23.0565 15.0472 23.1495 14.7207C23.2426 14.3941 23.4985 14.1376 23.8242 14.0443C23.894 14.0209 23.987 14.0209 24.0568 14.0209C24.3127 14.0209 24.5453 14.1142 24.7547 14.3242L26.7321 16.3068C26.988 16.5867 27.0578 16.9832 26.9182 17.3331Z" fill="#0C0B0B"/>
<path d="M42.2021 8.95942C42.109 9.19266 41.9229 9.37926 41.6903 9.47256C41.5739 9.51921 41.4576 9.54253 41.318 9.54253C40.9458 9.54253 40.5969 9.30929 40.4573 8.95942L38.1774 3.40812C38.0379 3.1049 38.0844 2.73171 38.2938 2.45181C38.4799 2.21856 38.759 2.07861 39.0382 2.07861C39.0847 2.07861 39.1313 2.07861 39.1778 2.07861C39.5035 2.12526 39.8059 2.35851 39.9222 2.68506L42.2021 8.21302C42.2951 8.4696 42.2951 8.72617 42.2021 8.95942Z" fill="#0C0B0B"/>
<path d="M77.912 3.4548L75.6321 8.98277C75.5623 9.16936 75.446 9.30931 75.2832 9.40261C75.1436 9.49591 74.9575 9.56588 74.7714 9.56588C74.655 9.56588 74.5155 9.54256 74.4224 9.49591C74.1898 9.40261 74.0037 9.21601 73.9106 8.98277C73.8176 8.74952 73.8176 8.49295 73.9106 8.2597L76.1904 2.75505C76.33 2.38186 76.7022 2.17194 77.0512 2.17194C77.1675 2.17194 77.2838 2.19526 77.4002 2.24191C77.6328 2.33521 77.8189 2.52181 77.912 2.75505C78.005 2.96498 78.005 3.22155 77.912 3.4548Z" fill="#0C0B0B"/>
<path d="M104.829 30.1383C104.782 30.4648 104.573 30.7681 104.247 30.8847L98.7335 33.1705C98.6171 33.2172 98.5008 33.2405 98.3845 33.2405C97.9425 33.2405 97.547 32.9139 97.454 32.4941C97.3609 32.0509 97.5935 31.6078 98.0123 31.4445L103.526 29.1587C103.642 29.112 103.758 29.0887 103.875 29.0887C104.084 29.0887 104.27 29.1587 104.456 29.2753C104.735 29.4852 104.875 29.8118 104.829 30.1383Z" fill="#0C0B0B"/>
<path d="M18.5663 32.6574C18.3802 33.1472 17.8219 33.3571 17.3333 33.1705L11.8199 30.8847C11.5872 30.7914 11.4011 30.6048 11.3081 30.3716C11.215 30.1383 11.215 29.8817 11.3081 29.6485C11.4011 29.4152 11.5872 29.2286 11.8199 29.1353C11.9362 29.0887 12.0525 29.0654 12.1688 29.0654C12.2851 29.0654 12.4247 29.0887 12.5178 29.1353L18.0313 31.4212C18.2639 31.5145 18.45 31.7011 18.5431 31.9343C18.6594 32.1676 18.6594 32.4241 18.5663 32.6574Z" fill="#0C0B0B"/>
</g>
<defs>
<clipPath id="clip0_137:46">
<rect width="115.341" height="115.341" fill="white" transform="translate(0.375 0.3526)"/>
</clipPath>
</defs>
</svg>
