<svg width="41" height="41" viewBox="0 0 41 41" fill="none" xmlns="http://www.w3.org/2000/svg">
<rect x="39.8994" y="1.16956" width="38" height="38" rx="19" transform="rotate(90 39.8994 1.16956)" stroke="#0C0B0B" stroke-width="2"/>
<path d="M15.5659 20.3964L14.3588 20.3964L15.2124 21.25L18.6227 24.6603L18.9763 24.3068L18.6227 24.6603C18.7113 24.7489 18.7113 24.8924 18.6227 24.981C18.5342 25.0695 18.3906 25.0695 18.3021 24.981L13.6511 20.33C13.5626 20.2414 13.5626 20.0979 13.6511 20.0094L13.2976 19.6558L13.6511 20.0094L18.3018 15.3585C18.3464 15.314 18.4037 15.292 18.4623 15.292C18.521 15.292 18.5782 15.314 18.6226 15.3584C18.7112 15.447 18.7112 15.5905 18.6226 15.679L18.6226 15.679L15.2124 19.0894L14.3588 19.943L15.5659 19.943L27.9872 19.943C28.1123 19.943 28.2139 20.0445 28.2139 20.1697C28.2139 20.2949 28.1123 20.3964 27.9872 20.3964L15.5659 20.3964Z" fill="#0C0B0B" stroke="#0C0B0B"/>
</svg>
