<svg width="7" height="5" viewBox="0 0 7 5" fill="none" xmlns="http://www.w3.org/2000/svg">
<path d="M3.69206 3.93118L5.97652 1.64672C6.1159 1.50734 6.1159 1.28129 5.97652 1.14191C5.83711 1.0025 5.61112 1.0025 5.47171 1.14191L3.7966 2.81702C3.7966 2.81702 3.62804 3.0058 3.44101 3.00184C3.25848 2.99797 3.0827 2.81702 3.0827 2.81702L1.40759 1.14197C1.26818 1.00256 1.04219 1.00256 0.902784 1.14197C0.833137 1.21164 0.798242 1.30302 0.798242 1.39437C0.798242 1.48572 0.833137 1.57707 0.902784 1.64678L3.18725 3.93118C3.32666 4.07059 3.55265 4.07059 3.69206 3.93118Z" fill="#0C0B0B" stroke="#0C0B0B" stroke-width="0.5"/>
</svg>
