<svg width="25" height="25" viewBox="0 0 25 25" fill="none" xmlns="http://www.w3.org/2000/svg">
<path d="M22.1949 10.5804C22.8863 10.5804 23.5565 10.3142 24.0822 9.83086C24.6071 9.34811 24.9292 8.70247 24.9897 8.01277C25.0523 7.29713 24.8283 6.62098 24.3589 6.10867C23.8914 5.59845 23.2409 5.31731 22.5256 5.31731H19.908L20.1374 2.69527C20.2002 1.97964 19.9762 1.30348 19.5068 0.791359C19.0393 0.280952 18.3887 0 17.6748 0C16.9834 0 16.3132 0.266075 15.7877 0.749397C15.2628 1.23215 14.9403 1.87778 14.88 2.56748L14.6393 5.31731H11.552L11.7815 2.69508C11.8441 1.97964 11.6201 1.30329 11.1507 0.791359C10.6833 0.280952 10.0327 0 9.31873 0C8.62732 0 7.95708 0.266075 7.4316 0.749397C6.9067 1.23215 6.58436 1.87778 6.52409 2.56748L6.28338 5.31731H3.53623C2.84481 5.31731 2.17457 5.58357 1.6489 6.06689C1.124 6.54964 0.801659 7.19528 0.741387 7.88517C0.678826 8.60081 0.902749 9.27696 1.37215 9.78928C1.83983 10.2995 2.49024 10.5804 3.20396 10.5804H5.82295L5.55229 13.6734H2.80495C2.11372 13.6734 1.44348 13.9397 0.917817 14.423C0.392914 14.9055 0.0705725 15.5512 0.0103004 16.2411C-0.0522607 16.9567 0.171662 17.6331 0.641061 18.1452C1.10855 18.6554 1.75915 18.9363 2.47288 18.9363H5.09205L4.8626 21.5584C4.80003 22.2742 5.02396 22.9504 5.49336 23.4625C5.96085 23.9729 6.61144 24.2538 7.32517 24.2538C8.01659 24.2538 8.68683 23.9876 9.2123 23.5044C9.73721 23.0217 10.0595 22.3761 10.12 21.6862C10.1204 21.6825 10.1206 21.6791 10.121 21.6755L10.3605 18.9363H13.448L13.2187 21.5584C13.1559 22.274 13.3801 22.9502 13.8493 23.4625C14.3167 23.9727 14.9673 24.2538 15.6811 24.2538C16.3725 24.2538 17.0427 23.9876 17.5684 23.5043C18.0933 23.0215 18.4156 22.3759 18.4761 21.6862C18.4763 21.6839 18.4765 21.6816 18.4767 21.6793L18.7166 18.9363H21.464C21.4706 18.9363 21.4771 18.9363 21.4836 18.9362C22.1682 18.931 22.8306 18.6655 23.3511 18.1868C23.876 17.704 24.1983 17.0584 24.2588 16.3687C24.3214 15.653 24.0973 14.9769 23.628 14.4646C23.1604 13.9544 22.5098 13.6734 21.7945 13.6734H19.1769L19.4475 10.5803H22.1949V10.5804ZM14.179 10.5804L13.9084 13.6734H10.821L11.0916 10.5804H14.179Z" fill="white"/>
</svg>
