<svg width="10" height="10" viewBox="0 0 10 10" fill="none" xmlns="http://www.w3.org/2000/svg">
<path d="M9.59038 6.57568C9.36979 6.57568 9.19122 6.75425 9.19122 6.97484V8.6345L6.74374 6.18702C6.58618 6.02946 6.33408 6.02946 6.18702 6.18702C6.02946 6.34458 6.02946 6.59668 6.18702 6.74374L8.6345 9.20173H6.97484C6.75425 9.20173 6.57568 9.3803 6.57568 9.60088C6.57568 9.82147 6.75425 10 6.97484 10H9.59038C9.81097 10 9.98954 9.82147 9.98954 9.60088V6.97484C9.98954 6.75425 9.81097 6.57568 9.59038 6.57568Z" fill="#C4C4C4"/>
<path d="M1.36542 0.798319H3.02508C3.24567 0.798319 3.42424 0.619748 3.42424 0.399159C3.42424 0.178571 3.24567 0 3.02508 0H0.409536C0.188947 0 0.010376 0.178571 0.010376 0.399159V3.0147C0.010376 3.23529 0.188947 3.41386 0.409536 3.41386C0.630124 3.41386 0.808695 3.23529 0.808695 3.0147V1.36555L3.26668 3.82353C3.42424 3.98109 3.67634 3.98109 3.8234 3.82353C3.98096 3.66596 3.98096 3.41386 3.8234 3.26681L1.36542 0.798319Z" fill="#C4C4C4"/>
<path d="M3.2563 6.1869L0.798319 8.63438V6.97472C0.798319 6.75413 0.619748 6.57556 0.399159 6.57556C0.178571 6.57556 0 6.75413 0 6.97472V9.59026C0 9.81085 0.178571 9.98942 0.399159 9.98942H3.0147C3.23529 9.98942 3.41386 9.81085 3.41386 9.59026C3.41386 9.36967 3.23529 9.1911 3.0147 9.1911H1.36555L3.82353 6.73312C3.98109 6.57556 3.98109 6.32346 3.82353 6.1764C3.66596 6.02934 3.41386 6.02934 3.2563 6.1869Z" fill="#C4C4C4"/>
<path d="M9.59038 0.010498H6.97484C6.75425 0.010498 6.57568 0.189069 6.57568 0.409658C6.57568 0.630246 6.75425 0.808817 6.97484 0.808817H8.6345L6.18702 3.2563C6.02946 3.41386 6.02946 3.66596 6.18702 3.81302C6.34458 3.97058 6.59668 3.97058 6.74374 3.81302L9.20173 1.36554V3.0252C9.20173 3.24579 9.3803 3.42436 9.60088 3.42436C9.82147 3.42436 10 3.24579 10 3.0252V0.409658C9.98954 0.189069 9.81097 0.010498 9.59038 0.010498Z" fill="#C4C4C4"/>
</svg>
