<svg width="17" height="16" viewBox="0 0 17 16" fill="none" xmlns="http://www.w3.org/2000/svg">
<path d="M8.04395 0C3.63257 0 0.0439453 3.58862 0.0439453 8C0.0439453 12.4114 3.63257 16 8.04395 16C12.4553 16 16.0439 12.4114 16.0439 8C16.0439 3.58862 12.4553 0 8.04395 0ZM11.8486 12.1379C11.7186 12.2679 11.548 12.3334 11.3773 12.3334C11.2067 12.3334 11.0359 12.2679 10.906 12.1379L7.57263 8.80469C7.44727 8.68005 7.37732 8.51062 7.37732 8.33337V4C7.37732 3.63135 7.6759 3.33337 8.04395 3.33337C8.41199 3.33337 8.71057 3.63135 8.71057 4V8.05737L11.8486 11.1953C12.1093 11.4561 12.1093 11.8773 11.8486 12.1379Z" fill="#0C0B0B"/>
</svg>
