<svg width="21" height="21" viewBox="0 0 21 21" fill="none" xmlns="http://www.w3.org/2000/svg">
<path d="M19.9731 6.65997L13.84 0.526886C13.1374 -0.175669 11.9943 -0.175589 11.2918 0.526886L3.59594 8.2228H1.80183C0.808303 8.2228 0 9.0311 0 10.0246V18.6981C0 19.6917 0.808303 20.5 1.80183 20.5H15.6007C16.5942 20.5 17.4025 19.6917 17.4025 18.6981V11.7787L19.9731 9.20812C20.6756 8.50561 20.6756 7.36252 19.9731 6.65997ZM12.1412 1.37627C12.2584 1.25919 12.4122 1.20061 12.5659 1.20061C12.7197 1.20061 12.8735 1.25919 12.9906 1.37627L16.1508 4.53649L12.4645 8.2228H5.29467L12.1412 1.37627ZM16.2013 18.6981C16.2013 19.0293 15.9319 19.2987 15.6007 19.2987H1.80183C1.47066 19.2987 1.20122 19.0293 1.20122 18.6981V10.0246C1.20122 9.69345 1.47066 9.42402 1.80183 9.42402H15.6007C15.9319 9.42402 16.2013 9.69345 16.2013 10.0246V18.6981ZM15.8451 8.23981C15.7651 8.22892 15.6836 8.2228 15.6007 8.2228H14.1633L17.0002 5.38583L17.8496 6.23526L15.8451 8.23981ZM19.1237 8.35878L17.4025 10.08V10.0246C17.4025 9.56809 17.2315 9.1509 16.9506 8.83306L18.699 7.08464L19.1237 7.50931C19.3579 7.74351 19.3579 8.12458 19.1237 8.35878Z" fill="white"/>
<path d="M2.40234 16.2795H4.63738V17.4808H2.40234V16.2795Z" fill="white"/>
<path d="M5.85645 16.2795H8.09148V17.4808H5.85645V16.2795Z" fill="white"/>
<path d="M9.31055 16.2795H11.5456V17.4808H9.31055V16.2795Z" fill="white"/>
<path d="M12.7646 16.2795H14.9997V17.4808H12.7646V16.2795Z" fill="white"/>
<path d="M6.45715 11.2421H2.40234V14.8458H6.45715V11.2421ZM5.25593 13.6446H3.60357V12.4433H5.25593V13.6446Z" fill="white"/>
</svg>
