<svg width="16" height="21" viewBox="0 0 16 21" fill="none" xmlns="http://www.w3.org/2000/svg">
<path d="M14.9583 14.5673C15.3249 14.5686 15.6225 14.2723 15.6225 13.9061V1.98381C15.6225 0.888167 14.7343 0 13.6387 0H1.98381C0.888167 0 0 0.888167 0 1.98381V18.5155C0 19.6112 0.888167 20.4993 1.98381 20.4993H9.02921C9.39539 20.4993 9.69172 20.2018 9.69048 19.8352C9.688 19.2268 9.69172 17.9828 9.69172 15.3675C9.69172 14.9261 10.0492 14.5686 10.4906 14.5686C13.1055 14.5686 14.35 14.5649 14.9583 14.5673ZM7.93688 4.21559H12.3178C12.683 4.21559 12.9791 4.51167 12.9791 4.87686C12.9791 5.24204 12.683 5.53813 12.3178 5.53813H7.93688C7.57165 5.53813 7.27561 5.24204 7.27561 4.87686C7.27561 4.51167 7.57165 4.21559 7.93688 4.21559ZM6.00738 15.1395L4.25089 16.896C3.99262 17.1542 3.57395 17.1542 3.31569 16.896L2.71641 16.2967C2.45818 16.0385 2.45818 15.6198 2.71641 15.3615C2.97468 15.1033 3.39334 15.1033 3.65161 15.3615L3.78329 15.4932L5.07218 14.2043C5.33045 13.9461 5.74911 13.9461 6.00738 14.2043C6.26561 14.4626 6.26561 14.8812 6.00738 15.1395ZM6.00738 9.76669L4.25089 11.5232C3.99262 11.7814 3.57395 11.7814 3.31569 11.5232L2.71641 10.9239C2.45818 10.6656 2.45818 10.247 2.71641 9.98872C2.97468 9.73049 3.39334 9.73049 3.65161 9.98872L3.78329 10.1204L5.07218 8.8315C5.33045 8.57327 5.74911 8.57327 6.00738 8.8315C6.26561 9.08976 6.26561 9.50843 6.00738 9.76669ZM6.00738 4.39388L4.25089 6.15038C3.99262 6.40861 3.57395 6.40861 3.31569 6.15038L2.71641 5.5511C2.45818 5.29284 2.45818 4.87417 2.71641 4.61591C2.97468 4.35768 3.39334 4.35768 3.65161 4.61591L3.78329 4.74762L5.07218 3.45868C5.33045 3.20046 5.74911 3.20046 6.00738 3.45868C6.26561 3.71695 6.26561 4.13562 6.00738 4.39388ZM8.26752 16.2837H7.93688C7.57165 16.2837 7.27561 15.9877 7.27561 15.6225C7.27561 15.2573 7.57165 14.9612 7.93688 14.9612H8.26752C8.63274 14.9612 8.92879 15.2573 8.92879 15.6225C8.92879 15.9877 8.63274 16.2837 8.26752 16.2837ZM7.93688 10.9109C7.57165 10.9109 7.27561 10.6149 7.27561 10.2497C7.27561 9.88448 7.57165 9.5884 7.93688 9.5884H12.3178C12.683 9.5884 12.9791 9.88448 12.9791 10.2497C12.9791 10.6149 12.683 10.9109 12.3178 10.9109H7.93688ZM15.4286 16.2552L11.3784 20.3055C10.9617 20.722 10.2497 20.4248 10.2497 19.8381V15.7878C10.2497 15.4224 10.5456 15.1265 10.9109 15.1265H14.9612C15.5403 15.1265 15.851 15.8327 15.4286 16.2552Z" fill="white"/>
</svg>
