<svg width="18" height="21" viewBox="0 0 18 21" fill="none" xmlns="http://www.w3.org/2000/svg">
<path d="M11.7636 9.50547C13.0753 8.54882 13.9295 7.00059 13.9295 5.25641C13.9295 2.35802 11.5714 0 8.67306 0C5.77467 0 3.41665 2.35802 3.41665 5.25641C3.41665 7.00059 4.27081 8.54882 5.58257 9.50547C2.32179 10.7533 0 13.9148 0 17.609C0 19.2031 1.29691 20.5 2.89102 20.5H14.4551C16.0492 20.5 17.3461 19.2031 17.3461 17.609C17.3461 13.9148 15.0243 10.7533 11.7636 9.50547ZM4.99359 5.25641C4.99359 3.22755 6.6442 1.57694 8.67306 1.57694C10.7019 1.57694 12.3525 3.22755 12.3525 5.25641C12.3525 7.28527 10.7019 8.93592 8.67306 8.93592C6.6442 8.93592 4.99359 7.28527 4.99359 5.25641ZM14.4551 18.9231H2.89102C2.16643 18.9231 1.57694 18.3336 1.57694 17.6089C1.57694 13.6961 4.7602 10.5128 8.6731 10.5128C12.586 10.5128 15.7693 13.696 15.7693 17.6089C15.7692 18.3336 15.1797 18.9231 14.4551 18.9231Z" fill="white"/>
</svg>
