<svg width="21" height="21" viewBox="0 0 21 21" fill="none" xmlns="http://www.w3.org/2000/svg">
<path d="M20.5 11.9116C20.5 10.3363 19.5074 9.02 18.1263 8.5021V7.87632C18.1263 3.53895 14.5874 0 10.25 0C5.91263 0 2.37368 3.53895 2.37368 7.87632V8.5021C0.992632 9.02 0 10.3579 0 11.9116C0 13.9184 1.64 15.5584 3.64684 15.5584H4.96316C5.30842 15.5584 5.58895 15.2779 5.58895 14.9326V8.89053C5.58895 8.54526 5.30842 8.26474 4.96316 8.26474H4.35895V7.87632C4.35895 4.61789 7.01316 1.98526 10.25 1.98526C13.4868 1.98526 16.1411 4.63947 16.1411 7.87632V8.26474H15.5368C15.1916 8.26474 14.9111 8.54526 14.9111 8.89053V14.9326C14.9111 15.2779 15.1916 15.5584 15.5368 15.5584H15.8174C15.1916 17.0042 13.8105 18.0184 12.1705 18.1479C12.0842 17.7379 11.7174 17.4142 11.2642 17.4142H9.21421C8.69632 17.4142 8.28632 17.8242 8.28632 18.3421V19.3995C8.28632 19.9174 8.69632 20.3274 9.21421 20.3274H11.2642C11.7174 20.3274 12.1058 20.0037 12.1705 19.5505C14.6089 19.4211 16.6374 17.7595 17.3279 15.5153C19.1189 15.2779 20.5 13.7458 20.5 11.9116Z" fill="url(#paint0_linear_137:1745)"/>
<defs>
    <linearGradient id="paint0_linear_137:1745" x1="0.5" y1="10" x2="20" y2="10" gradientUnits="userSpaceOnUse">
        <stop offset="0%" stop-color="#7FA1F8">
            <animate attributeName="stop-color" values="#7FA1F8; #B279F7; #7FA1F8" dur="1s" repeatCount="indefinite"></animate>
        </stop>
        <stop offset="100%" stop-color="#B279F7">
            <animate attributeName="stop-color" values="#B279F7; #7FA1F8; #B279F7" dur="1s" repeatCount="indefinite"></animate>
        </stop>
    </linearGradient>
</defs>
</svg>
