<svg width="10" height="10" viewBox="0 0 10 10" fill="none" xmlns="http://www.w3.org/2000/svg">
<path d="M6.46987 9.49337C6.69035 9.49337 6.86882 9.3149 6.86882 9.09442V7.43563L9.31502 9.88182C9.4725 10.0393 9.72447 10.0393 9.87145 9.88182C10.0289 9.72434 10.0289 9.47238 9.87145 9.32539L7.42525 6.8687H9.08405C9.30452 6.8687 9.483 6.69022 9.483 6.46975C9.483 6.24928 9.30452 6.0708 9.08405 6.0708H6.46987C6.2494 6.0708 6.07092 6.24928 6.07092 6.46975V9.09442C6.07092 9.3149 6.2494 9.49337 6.46987 9.49337Z" fill="#C4C4C4"/>
<path d="M2.5853 3.14173H0.926509C0.706036 3.14173 0.527558 3.32021 0.527558 3.54068C0.527558 3.76115 0.706036 3.93963 0.926509 3.93963H3.54068C3.76115 3.93963 3.93963 3.76115 3.93963 3.54068V0.926509C3.93963 0.706037 3.76115 0.527559 3.54068 0.527559C3.32021 0.527559 3.14173 0.706037 3.14173 0.926509V2.5748L0.685039 0.11811C0.527558 -0.0393701 0.27559 -0.0393701 0.128608 0.11811C-0.028872 0.275591 -0.028872 0.527559 0.128608 0.674541L2.5853 3.14173Z" fill="#C4C4C4"/>
<path d="M0.685039 9.87133L3.14173 7.42513V9.08392C3.14173 9.3044 3.32021 9.48287 3.54068 9.48287C3.76115 9.48287 3.93963 9.3044 3.93963 9.08392V6.46975C3.93963 6.24928 3.76115 6.0708 3.54068 6.0708H0.926509C0.706037 6.0708 0.527559 6.24928 0.527559 6.46975C0.527559 6.69022 0.706037 6.8687 0.926509 6.8687H2.5748L0.11811 9.32539C-0.0393701 9.48287 -0.0393701 9.73484 0.11811 9.88182C0.275591 10.0288 0.527559 10.0288 0.685039 9.87133Z" fill="#C4C4C4"/>
<path d="M6.48037 3.92913H9.09454C9.31502 3.92913 9.4935 3.75066 9.4935 3.53018C9.4935 3.30971 9.31502 3.13123 9.09454 3.13123H7.43575L9.88195 0.685039C10.0394 0.527558 10.0394 0.27559 9.88195 0.128608C9.72447 -0.028872 9.4725 -0.028872 9.32552 0.128608L6.86882 2.5748V0.91601C6.86882 0.695537 6.69035 0.51706 6.46987 0.51706C6.2494 0.51706 6.07092 0.695537 6.07092 0.91601V3.53018C6.08142 3.75066 6.2599 3.92913 6.48037 3.92913Z" fill="#C4C4C4"/>
</svg>
