<svg width="16" height="21" viewBox="0 0 16 21" fill="none" xmlns="http://www.w3.org/2000/svg">
<path d="M15.6171 1.98312C15.6171 0.889636 14.7275 0 13.634 0H1.98312C0.889636 0 0 0.889636 0 1.98312V18.5091C0 19.6026 0.889636 20.4922 1.98312 20.4922C11.5692 20.4922 11.0576 20.5493 11.3104 20.3542C11.375 20.3043 15.4305 16.2448 15.4621 16.2072C15.6844 15.9426 15.6171 16.6487 15.6171 1.98312ZM1.32208 18.5091V1.98312C1.32208 1.61864 1.61864 1.32208 1.98312 1.32208H13.634C13.9984 1.32208 14.295 1.61864 14.295 1.98312V15.1213H10.9072C10.5421 15.1213 10.2461 15.4173 10.2461 15.7823V19.1702H1.98312C1.61864 19.1702 1.32208 18.8736 1.32208 18.5091ZM11.5682 18.2353V16.4434H13.3602L11.5682 18.2353ZM7.80854 4.87517C7.80854 4.51011 8.10448 4.21413 8.46958 4.21413H12.4358C12.8009 4.21413 13.0969 4.51011 13.0969 4.87517C13.0969 5.24023 12.8009 5.53621 12.4358 5.53621H8.46958C8.10448 5.53621 7.80854 5.24023 7.80854 4.87517ZM6.00365 3.45749C6.26179 3.71566 6.26179 4.13419 6.00365 4.39236L4.24776 6.14825C3.98958 6.40639 3.57106 6.40639 3.31289 6.14825L2.71382 5.54918C2.45568 5.29101 2.45568 4.87248 2.71382 4.61431C2.972 4.35617 3.39052 4.35617 3.64869 4.61431L3.78032 4.74598L5.06877 3.45749C5.32695 3.19935 5.74547 3.19935 6.00365 3.45749ZM7.80854 10.2461C7.80854 9.88106 8.10448 9.58508 8.46958 9.58508H12.4358C12.8009 9.58508 13.0969 9.88106 13.0969 10.2461C13.0969 10.6112 12.8009 10.9072 12.4358 10.9072H8.46958C8.10448 10.9072 7.80854 10.6112 7.80854 10.2461ZM6.00365 8.82844C6.26179 9.08662 6.26179 9.50514 6.00365 9.76331L4.24776 11.5192C3.98958 11.7773 3.57106 11.7773 3.31289 11.5192L2.71382 10.9201C2.45568 10.662 2.45568 10.2434 2.71382 9.98526C2.972 9.72712 3.39052 9.72712 3.64869 9.98526L3.78032 10.1169L5.06877 8.82844C5.32695 8.5703 5.74547 8.5703 6.00365 8.82844ZM9.46114 15.6171C9.46114 15.9821 9.1652 16.2781 8.8001 16.2781H8.46958C8.10448 16.2781 7.80854 15.9821 7.80854 15.6171C7.80854 15.252 8.10448 14.956 8.46958 14.956H8.8001C9.1652 14.956 9.46114 15.252 9.46114 15.6171ZM6.00365 14.1994C6.26179 14.4576 6.26179 14.8761 6.00365 15.1343L4.24776 16.8902C3.98958 17.1483 3.57106 17.1483 3.31289 16.8902L2.71382 16.2911C2.45568 16.0329 2.45568 15.6144 2.71382 15.3562C2.972 15.0981 3.39052 15.0981 3.64869 15.3562L3.78032 15.4879L5.06877 14.1994C5.32695 13.9413 5.74547 13.9413 6.00365 14.1994Z" fill="white"/>
</svg>
