<svg width="41" height="25" viewBox="0 0 41 25" fill="none" xmlns="http://www.w3.org/2000/svg">
<path d="M40.0656 1.65159C40.3472 0.70021 40.0656 0 38.7108 0H34.2278C33.0861 0 32.5608 0.601275 32.2793 1.27109C32.2793 1.27109 29.996 6.83481 26.7688 10.4425C25.7261 11.4853 25.2466 11.8202 24.6758 11.8202C24.3943 11.8202 23.9604 11.4853 23.9604 10.5339V1.65159C23.9604 0.509916 23.6406 0 22.6968 0H15.6488C14.9334 0 14.5072 0.532823 14.5072 1.0275C14.5072 2.10821 16.1208 2.35938 16.2883 5.4039V12.0105C16.2883 13.4567 16.0294 13.7229 15.4586 13.7229C13.9364 13.7229 10.2373 8.13638 8.04529 1.74295C7.60391 0.50234 7.16994 0 6.02069 0H1.5375C0.258835 0 0 0.601275 0 1.27109C0 2.45831 1.52226 8.35716 7.08606 16.151C10.7927 21.4711 16.014 24.356 20.7634 24.356C23.6176 24.356 23.9678 23.7167 23.9678 22.6131C23.9678 17.5286 23.709 17.0491 25.14 17.0491C25.8021 17.0491 26.9437 17.384 29.6079 19.9489C32.6521 22.9934 33.1545 24.3559 34.8594 24.3559H39.3424C40.6212 24.3559 41.2682 23.7166 40.8952 22.4529C40.0427 19.7967 34.281 14.3319 34.0222 13.9665C33.3601 13.1141 33.5503 12.7334 34.0222 11.9722C34.03 11.9648 39.5023 4.26223 40.0656 1.65159Z" fill="#5181B8"/>
</svg>
