<svg width="41" height="41" viewBox="0 0 41 41" fill="none" xmlns="http://www.w3.org/2000/svg">
<path d="M9.08646 24.7768L7.65931 30.1045L2.4431 30.2149C0.884223 27.3235 0 24.0154 0 20.5C0 17.1006 0.826727 13.8949 2.29216 11.0722H2.29328L6.93717 11.9236L8.97147 16.5396C8.5457 17.7809 8.31363 19.1134 8.31363 20.5C8.31379 22.0048 8.58638 23.4466 9.08646 24.7768Z" fill="#FBBB00"/>
<path d="M40.6419 16.6703C40.8773 17.9104 41.0001 19.1911 41.0001 20.4999C41.0001 21.9676 40.8458 23.3993 40.5518 24.7802C39.5539 29.4794 36.9463 33.5828 33.334 36.4866L33.3329 36.4855L27.4837 36.187L26.6558 31.0192C29.0527 29.6135 30.9259 27.4137 31.9126 24.7802H20.9507V16.6703H32.0726H40.6419Z" fill="#518EF8"/>
<path d="M33.3327 36.4856L33.3338 36.4867C29.8207 39.3105 25.358 41.0001 20.4999 41.0001C12.6931 41.0001 5.90555 36.6365 2.44305 30.2151L9.08641 24.777C10.8176 29.3973 15.2747 32.6864 20.4999 32.6864C22.7459 32.6864 24.85 32.0792 26.6556 31.0193L33.3327 36.4856Z" fill="#28B446"/>
<path d="M33.585 4.71948L26.9439 10.1565C25.0753 8.98845 22.8664 8.31371 20.5 8.31371C15.1564 8.31371 10.616 11.7536 8.97151 16.5397L2.29324 11.0722H2.29211C5.70392 4.49423 12.577 0 20.5 0C25.474 0 30.0347 1.77181 33.585 4.71948Z" fill="#F14336"/>
</svg>
