<svg width="21" height="21" viewBox="0 0 21 21" fill="none" xmlns="http://www.w3.org/2000/svg">
<path d="M10.5 0C4.70995 0 0 4.7104 0 10.5C0 16.2896 4.70995 21 10.5 21C16.2901 21 21 16.2896 21 10.5C21 4.7104 16.2901 0 10.5 0ZM14.6742 10.8679L8.54922 14.8054C8.47744 14.8519 8.39455 14.875 8.31251 14.875C8.24074 14.875 8.1681 14.857 8.10317 14.8216C7.96216 14.7447 7.875 14.5977 7.875 14.4375V6.5625C7.875 6.40229 7.96216 6.25529 8.10317 6.17839C8.2416 6.10235 8.41505 6.10702 8.54922 6.19463L14.6742 10.1321C14.799 10.2124 14.875 10.3513 14.875 10.5C14.875 10.6487 14.799 10.7875 14.6742 10.8679Z" fill="#7FA1F8"/>
</svg>
