<svg width="27" height="11" viewBox="0 0 27 11" fill="none" xmlns="http://www.w3.org/2000/svg">
<path d="M6.762 2.048H2.842V4.372H6.65V6.22H2.842V10H0.91V0.199999H6.762V2.048ZM14.0323 10L13.4443 8.236H9.53827L8.95027 10H6.86427L10.2943 0.199999H12.6883L16.1323 10H14.0323ZM10.1543 6.43H12.8423L11.4983 2.426L10.1543 6.43ZM26.4584 5.1C26.4584 6.36933 26.057 7.47067 25.2544 8.404L26.2624 9.454L24.8904 10.672L23.8264 9.566C23.0704 9.986 22.249 10.196 21.3624 10.196C19.953 10.196 18.7537 9.706 17.7644 8.726C16.775 7.73667 16.2804 6.528 16.2804 5.1C16.2804 3.672 16.775 2.468 17.7644 1.488C18.7537 0.498666 19.953 0.00399935 21.3624 0.00399935C22.7717 0.00399935 23.971 0.498666 24.9604 1.488C25.959 2.468 26.4584 3.672 26.4584 5.1ZM21.3624 8.306C21.7264 8.306 22.0904 8.24533 22.4544 8.124L20.8444 6.444L22.2164 5.226L23.9384 7.018C24.3304 6.458 24.5264 5.81867 24.5264 5.1C24.5264 4.16667 24.223 3.39667 23.6164 2.79C23.0097 2.18333 22.2584 1.88 21.3624 1.88C20.4664 1.88 19.715 2.18333 19.1084 2.79C18.5017 3.39667 18.1984 4.16667 18.1984 5.1C18.1984 6.024 18.5017 6.78933 19.1084 7.396C19.715 8.00267 20.4664 8.306 21.3624 8.306Z" fill="url(#paint0_linear)"/>
<defs>
<linearGradient id="paint0_linear" x1="6" y1="14" x2="27" y2="14" gradientUnits="userSpaceOnUse">
<stop stop-color="#7FA1F8"/>
<stop offset="1" stop-color="#B279F7"/>
</linearGradient>
</defs>
</svg>
