<svg width="175" height="191" viewBox="0 0 175 191" fill="none" xmlns="http://www.w3.org/2000/svg">
<g clip-path="url(#clip0_137:295)">
<path d="M93.6875 20.0594C99.7959 36.3923 119.787 33.9344 133.352 30.4458C136.605 29.5737 139.936 28.6222 142.872 26.9572C145.807 25.2922 148.266 22.5965 149.218 19.3458C150.249 15.6986 149.059 11.655 146.997 8.4836C145.093 5.55002 142.316 2.45786 139.381 0.554999C138.112 3.80573 133.59 4.04358 130.496 4.04358C126.133 4.04358 122.167 2.37858 118.121 1.18929C113.996 -3.39746e-06 109.553 -0.237861 105.428 0.872143C97.0987 2.85429 90.435 11.3379 93.6875 20.0594Z" fill="#0C0B0B"/>
<path d="M106.142 129.395C105.904 129.395 105.825 129.395 105.666 129.474L106.142 129.395Z" fill="#0C0B0B"/>
<path d="M106.142 129.395C105.904 129.395 105.825 129.395 105.666 129.474L106.142 129.395Z" fill="#0C0B0B"/>
<path d="M88.5312 49.8709V34.5687C88.5312 21.5658 100.669 10.9415 115.503 10.9415C122.881 10.9415 129.624 13.5579 134.542 17.8393C139.461 22.1208 142.475 27.988 142.475 34.4894V49.7916" stroke="#0C0B0B" stroke-width="2" stroke-miterlimit="10"/>
<path d="M142.475 66.4417V84.1224C142.475 97.1253 130.338 107.75 115.503 107.75C100.669 107.75 88.5312 97.1253 88.5312 84.1224V66.4417" stroke="#0C0B0B" stroke-width="2" stroke-miterlimit="10"/>
<path d="M99.4788 71.9124C107.058 71.9124 113.203 65.7714 113.203 58.1959C113.203 50.6205 107.058 44.4795 99.4788 44.4795C91.8993 44.4795 85.7549 50.6205 85.7549 58.1959C85.7549 65.7714 91.8993 71.9124 99.4788 71.9124Z" stroke="#0C0B0B" stroke-width="2" stroke-miterlimit="10"/>
<path d="M131.449 71.9124C139.028 71.9124 145.172 65.7714 145.172 58.1959C145.172 50.6205 139.028 44.4795 131.449 44.4795C123.869 44.4795 117.725 50.6205 117.725 58.1959C117.725 65.7714 123.869 71.9124 131.449 71.9124Z" stroke="#0C0B0B" stroke-width="2" stroke-miterlimit="10"/>
<path d="M113.123 57.7995H117.883" stroke="#0C0B0B" stroke-width="4" stroke-miterlimit="10"/>
<path d="M126.53 105.609H126.61V130.425" stroke="#0C0B0B" stroke-width="2" stroke-miterlimit="10"/>
<path d="M106.777 130.108V106.243" stroke="#0C0B0B" stroke-width="2" stroke-miterlimit="10"/>
<path d="M99.4788 61.3674C101.231 61.3674 102.652 59.9475 102.652 58.1959C102.652 56.4444 101.231 55.0245 99.4788 55.0245C97.7263 55.0245 96.3057 56.4444 96.3057 58.1959C96.3057 59.9475 97.7263 61.3674 99.4788 61.3674Z" fill="#0C0B0B"/>
<path d="M131.449 61.3674C133.201 61.3674 134.622 59.9475 134.622 58.1959C134.622 56.4444 133.201 55.0245 131.449 55.0245C129.696 55.0245 128.275 56.4444 128.275 58.1959C128.275 59.9475 129.696 61.3674 131.449 61.3674Z" fill="#0C0B0B"/>
<path d="M86.7063 63.3495H85.1198C83.3745 63.3495 81.7879 64.0631 80.598 65.1731C79.4874 66.3624 78.7734 67.9481 78.7734 69.6924C78.7734 73.181 81.6293 76.0353 85.1198 76.0353H88.2929" stroke="#0C0B0B" stroke-width="2" stroke-miterlimit="10"/>
<path d="M144.22 63.3495H145.807C149.297 63.3495 152.153 66.2038 152.153 69.6924C152.153 71.4367 151.439 73.0224 150.249 74.2117C149.139 75.3217 147.552 76.0353 145.807 76.0353H142.634" stroke="#0C0B0B" stroke-width="2" stroke-miterlimit="10"/>
<path d="M88.3731 67.7896V71.5953H85.8346C84.8033 71.5953 83.9307 70.7231 83.9307 69.6924C83.9307 69.1374 84.1686 68.6617 84.486 68.3446C84.8033 68.0274 85.2793 67.7896 85.8346 67.7896H88.3731Z" fill="#0C0B0B"/>
<path d="M142.634 71.5953V67.7896H145.172C146.204 67.7896 147.076 68.6617 147.076 69.6924C147.076 70.2474 146.838 70.7231 146.521 71.0403C146.204 71.3574 145.728 71.5953 145.172 71.5953H142.634Z" fill="#0C0B0B"/>
<path d="M115.504 71.2781C115.504 71.2781 111.537 77.621 117.883 76.0353" stroke="#0C0B0B" stroke-width="2" stroke-miterlimit="10" stroke-linecap="round"/>
<path d="M108.363 89.5932C108.363 89.5932 114.71 97.4425 123.436 89.5932" stroke="#0C0B0B" stroke-width="2" stroke-miterlimit="10" stroke-linecap="round"/>
<path d="M93.291 41.9423C93.291 41.9423 97.6541 37.5816 105.19 41.1495" stroke="#0C0B0B" stroke-width="3" stroke-miterlimit="10" stroke-linecap="round"/>
<path d="M137.716 41.9423C137.716 41.9423 133.353 37.5816 125.816 41.1495" stroke="#0C0B0B" stroke-width="3" stroke-miterlimit="10" stroke-linecap="round"/>
<path d="M88.373 32.9037C88.373 32.9037 77.4256 24.4201 82.1854 14.1129C86.9451 3.80572 102.018 9.35574 102.018 9.35574C102.018 9.35574 108.047 35.0444 88.373 32.9037Z" fill="#0C0B0B"/>
<path d="M33.9525 96.2539C33.0005 93.1617 31.6519 91.6553 30.9379 87.136C29.4307 78.0974 29.986 69.4552 26.2575 69.7723C24.7503 69.9309 24.2743 71.5166 24.3536 72.3888L25.5436 86.6603C25.0676 88.3253 24.195 87.691 24.195 87.691C24.195 87.691 21.1011 75.0052 20.7045 72.7059C20.3079 70.4859 19.1972 69.2173 17.69 69.3759C15.0721 69.6138 16.1034 72.7852 16.3414 73.9745L19.1179 89.356C19.3559 90.8624 17.7693 90.3867 17.7693 90.3867L11.5817 75.0052C10.8677 73.3402 9.51909 73.7366 9.51909 73.7366C7.05989 74.2916 8.01184 76.5116 8.01184 76.5116L13.3269 92.8446C13.3269 92.9239 13.3269 93.0031 13.3269 93.0824C13.4062 93.9546 12.2956 94.4303 11.8196 93.6374C10.1537 91.1003 6.90123 87.0567 4.20404 85.471C2.85545 84.6781 1.9035 84.8367 1.3482 85.2331C0.792892 85.6295 0.713563 86.3431 1.11021 86.8981L11.0263 101.249C13.3269 116.472 22.6084 118.295 22.6084 118.295L28.1614 140.02L36.3323 174.271L37.3636 178.632C38.3156 182.834 42.1234 185.847 46.4071 185.847H50.7702C53.8641 185.847 56.0059 182.834 55.054 179.98L35.3011 119.881L34.4284 114.648C36.3323 112.508 37.6016 107.988 38.2362 104.737C38.6329 102.993 38.7915 101.17 38.6329 99.4253C38.3156 95.0646 41.2507 87.2153 41.2507 87.2153C41.0127 85.7088 38.1569 86.9774 38.1569 86.9774C34.9837 88.0874 34.1904 93.1617 33.9525 95.9367C33.8731 97.126 33.3178 98.1567 32.5245 98.9496C27.7648 103.627 27.3681 108.86 27.3681 108.86" stroke="#0C0B0B" stroke-width="2" stroke-miterlimit="10"/>
<path d="M20.6252 72.7846C20.2285 70.5646 19.5146 68.8996 17.6107 69.4546C15.0721 70.1681 16.0241 72.8638 16.2621 74.0531" stroke="#0C0B0B" stroke-width="2" stroke-miterlimit="10"/>
<path d="M175 190.207V191H157.707L154.057 170.782V191H79.1708V179.504C79.1708 176.729 79.1708 173.954 79.2501 171.179C77.5842 172.526 75.7597 173.636 73.6178 174.826L57.038 185.926C56.9587 186.005 56.8793 186.005 56.8 186.084C56.086 186.481 55.2927 186.719 54.4201 186.719L50.9723 186.849C50.9723 186.849 54.6581 185.45 55.5307 181.961L49.5811 162.14C58.0693 155.083 71.7932 134.707 98.1305 130.505C99.2411 130.267 100.431 130.029 101.7 129.87C102.89 129.712 104.08 129.553 105.429 129.474L106.301 129.395V129.553L105.825 129.633C105.984 129.633 106.063 129.633 106.222 129.553H106.301C106.46 129.553 106.619 129.553 106.777 129.474H106.857L107.65 129.395V132.408C107.65 132.804 107.809 133.28 108.205 133.676C109.395 135.024 112.092 136.055 115.345 136.293C115.9 136.372 116.455 136.372 117.011 136.372C117.09 136.372 117.169 136.372 117.169 136.372H117.249C120.422 136.293 123.357 135.421 124.864 134.152C125.34 133.756 125.816 133.201 125.816 132.408V129.633L126.61 129.791H126.768C127.006 129.791 127.165 129.87 127.403 129.87V129.633L128.434 129.791C157.548 133.359 175 155.956 175 190.207Z" fill="#0C0B0B"/>
<path d="M56.9587 185.846L56.7207 186.005C56.8 186.005 56.8794 185.926 56.9587 185.846Z" fill="#0C0B0B"/>
</g>
<defs>
<clipPath id="clip0_137:295">
<rect width="175" height="191" fill="white"/>
</clipPath>
</defs>
</svg>
